<svg xmlns="http://www.w3.org/2000/svg" x="0px" y="0px" viewBox="15.027999877929688 14.249000549316406 33.944000244140625 35.50199890136719" enable-background="new 0 0 64 64">
<g>
	<g>
	</g>
	
		<path fill="#FFFFFF" stroke="#000000" stroke-width="2.5" stroke-linecap="round" stroke-linejoin="round" stroke-miterlimit="10" d="   M40.301,43.624h-8.063c-4.099,0-7.421-3.323-7.421-7.421V22.92c0-4.099,3.323-7.421,7.421-7.421h8.063   c4.099,0,7.421,3.323,7.421,7.421v13.283C47.723,40.301,44.4,43.624,40.301,43.624z"/>
</g>
<g>
	
		<path fill="#FFFFFF" stroke="#000000" stroke-width="2.5" stroke-linecap="round" stroke-linejoin="round" stroke-miterlimit="10" d="   M31.762,48.501h-8.063c-4.099,0-7.421-3.323-7.421-7.421V27.797c0-4.099,3.323-7.421,7.421-7.421h8.063   c4.099,0,7.421,3.323,7.421,7.421V41.08C39.183,45.179,35.861,48.501,31.762,48.501z"/>
</g>
<g>
	<g>
		<path fill="none" stroke="#000000" stroke-width="2.5" stroke-linecap="round" stroke-linejoin="round" stroke-miterlimit="10" d="    M24.325,31.387c0-1.88,1.524-3.405,3.405-3.405c1.841,0,3.405,1.564,3.405,3.405c0,1.577-1.072,2.903-2.527,3.29    c-0.524,0.139-0.878,0.626-0.878,1.168v1.597"/>
		
			<line fill="none" stroke="#000000" stroke-width="2.5" stroke-linecap="round" stroke-linejoin="round" stroke-miterlimit="10" x1="27.73" y1="40.895" x2="27.73" y2="40.895"/>
	</g>
</g>
</svg>