<svg xmlns="http://www.w3.org/2000/svg" x="0px" y="0px" viewBox="5.7794318199157715 5.624790191650391 36.44113540649414 36.750431060791016" enable-background="new 0 0 48 48">
<g>
	<g>
		<g>
			
				<path fill="#FFFFFF" stroke="#000000" stroke-width="2.5" stroke-linecap="round" stroke-linejoin="round" stroke-miterlimit="10" d="     M19.88952,39.55269v-2.68482c0,0,1.16109-3.09624-0.33174-4.53379c-1.07773-1.03781-4.115-3.08421-5.72078-4.14203     c-0.61297-0.4038-1.40994-0.36888-1.98961,0.08142l-0.24497,0.1903l-1.318-6.78361     c-0.12647-0.76137-0.75936-1.73817-1.43191-2.11679C7.34906,18.71698,6.99328,20.33334,7.03223,21v8.94877     c0,1.06397,0.49677,2.06693,1.34313,2.71169l4.02867,3.47117c0.59755,0.45522,0.94829,1.16333,0.94829,1.91453v1.50653     c0,0.86848,0.70404,1.57252,1.57252,1.57252H18.317C19.18548,41.12521,19.88952,40.42117,19.88952,39.55269z"/>
			
				<line fill="none" stroke="#000000" stroke-width="2.5" stroke-linecap="round" stroke-linejoin="round" stroke-miterlimit="10" x1="11.60242" y1="28.46378" x2="14.9687" y2="32.52432"/>
		</g>
		<g>
			
				<path fill="#FFFFFF" stroke="#000000" stroke-width="2.5" stroke-linecap="round" stroke-linejoin="round" stroke-miterlimit="10" d="     M28.11048,39.49803v-2.62059c0-0.00633,0.00132-0.00599-0.00088-0.01192c-0.03561-0.09631-1.13633-3.11689,0.33262-4.53143     c1.07035-1.03071,4.07352-3.05625,5.68761-4.12017c0.6324-0.41685,1.45553-0.38108,2.05368,0.08358l0.21407,0.16629     l1.3116-6.74506c0.13445-0.80941,0.80865-1.83953,1.5407-2.2101c1.4173-0.71744,1.75594,0.84013,1.71789,1.49138v8.94877     c0,1.06397-0.49677,2.06693-1.34313,2.71169l-4.02867,3.47117c-0.59755,0.45522-0.94828,1.16333-0.94828,1.91453v1.45187     c0,0.89867-0.72852,1.62718-1.62718,1.62718h-3.28284C28.83899,41.12521,28.11048,40.39669,28.11048,39.49803z"/>
			
				<line fill="none" stroke="#000000" stroke-width="2.5" stroke-linecap="round" stroke-linejoin="round" stroke-miterlimit="10" x1="36.39758" y1="28.46378" x2="33.0313" y2="32.52432"/>
		</g>
	</g>
</g>
<g>
	
		<path fill="#FFFFFF" stroke="#000000" stroke-width="2.5" stroke-linecap="round" stroke-linejoin="round" stroke-miterlimit="10" d="   M36.18731,20.99246c4.56886-6.55394,0.29862-13.24594-4.75659-14.01382c-5.25247-0.79784-7.42489,3.26349-7.42489,3.26349   s-2.17038-4.06134-7.42285-3.26349c-5.05521,0.76788-9.32545,7.45988-4.75659,14.01382   c4.36128,6.25618,8.62713,8.52553,10.7641,9.31994c0.92,0.34201,1.91073,0.34202,2.83077,0.00012   C27.55871,29.51822,31.8258,27.24897,36.18731,20.99246z"/>
</g>
</svg>